<svg xmlns="http://www.w3.org/2000/svg" viewBox="0 0 64 64" role="img" aria-label="PackCam favicon">
  <defs>
    <linearGradient id="bg" x1="10" y1="8" x2="54" y2="58" gradientUnits="userSpaceOnUse">
      <stop offset="0" stop-color="#17181d" />
      <stop offset="1" stop-color="#0b0c10" />
    </linearGradient>
    <linearGradient id="accent" x1="16" y1="14" x2="48" y2="50" gradientUnits="userSpaceOnUse">
      <stop offset="0" stop-color="#4f46e5" />
      <stop offset="1" stop-color="#22c55e" />
    </linearGradient>
  </defs>

  <rect x="4" y="4" width="56" height="56" rx="14" fill="url(#bg)" />
  <rect x="10" y="10" width="44" height="44" rx="11" fill="none" stroke="#2a2f3a" stroke-width="1.5" />

  <rect x="16" y="16" width="32" height="32" rx="8" fill="#111113" stroke="url(#accent)" stroke-width="2" />
  <circle cx="32" cy="32" r="8.5" fill="none" stroke="#e5e7eb" stroke-width="3" />
  <circle cx="32" cy="32" r="3.25" fill="#e5e7eb" />

  <rect x="18" y="20" width="4" height="24" rx="1.5" fill="#e5e7eb" opacity="0.92" />
  <rect x="24" y="20" width="2" height="24" rx="1" fill="#e5e7eb" opacity="0.92" />
  <rect x="28" y="20" width="5" height="24" rx="1" fill="#4f46e5" />
  <rect x="35" y="20" width="2" height="24" rx="1" fill="#e5e7eb" opacity="0.92" />
  <rect x="40" y="20" width="6" height="24" rx="1.2" fill="#22c55e" />

  <path d="M22 22h20" stroke="#ffffff" stroke-linecap="round" stroke-width="1.5" opacity="0.25" />
  <path d="M22 42h12" stroke="#ffffff" stroke-linecap="round" stroke-width="1.5" opacity="0.25" />
</svg>
